<?xml version="1.0" encoding="UTF-8" standalone="no"?>
<!-- Generator: Adobe Illustrator 17.0.0, SVG Export Plug-In . SVG Version: 6.00 Build 0)  -->

<svg
   xmlns:dc="http://purl.org/dc/elements/1.1/"
   xmlns:cc="http://creativecommons.org/ns#"
   xmlns:rdf="http://www.w3.org/1999/02/22-rdf-syntax-ns#"
   xmlns:svg="http://www.w3.org/2000/svg"
   xmlns="http://www.w3.org/2000/svg"
   xmlns:sodipodi="http://sodipodi.sourceforge.net/DTD/sodipodi-0.dtd"
   xmlns:inkscape="http://www.inkscape.org/namespaces/inkscape"
   version="1.1"
   id="Warstwa_1"
   x="0px"
   y="0px"
   width="173.2px"
   height="200px"
   viewBox="0 0 173.2 200"
   enable-background="new 0 0 173.2 200"
   xml:space="preserve"
   sodipodi:docname="sygnet1.svg"
   inkscape:version="0.92.3 (2405546, 2018-03-11)"><metadata
   id="metadata3757"><rdf:RDF><cc:Work
       rdf:about=""><dc:format>image/svg+xml</dc:format><dc:type
         rdf:resource="http://purl.org/dc/dcmitype/StillImage" /></cc:Work></rdf:RDF></metadata><defs
   id="defs3755" /><sodipodi:namedview
   pagecolor="#ffffff"
   bordercolor="#666666"
   borderopacity="1"
   objecttolerance="10"
   gridtolerance="10"
   guidetolerance="10"
   inkscape:pageopacity="0"
   inkscape:pageshadow="2"
   inkscape:window-width="1366"
   inkscape:window-height="715"
   id="namedview3753"
   showgrid="false"
   inkscape:zoom="2.73"
   inkscape:cx="86.599998"
   inkscape:cy="100"
   inkscape:window-x="-8"
   inkscape:window-y="-8"
   inkscape:window-maximized="1"
   inkscape:current-layer="Warstwa_1" />
<polygon
   fill="#1FA8D7"
   points="0,150 0,50 86.6,0 173.2,50 173.2,150 86.6,200 "
   id="polygon3736"
   style="fill:#ff7f2a" />
<polygon
   fill="#FFFFFF"
   points="86.6,133.3 57.7,116.7 57.7,83.3 86.6,66.7 115.5,83.3 144.3,66.7 86.6,33.3 28.9,66.7 28.9,133.3   86.6,166.7 144.3,133.3 115.5,116.7 "
   id="polygon3738" />
<polygon
   stroke-miterlimit="10"
   enable-background="new    "
   points="86.6,100 86.6,0 0,50 "
   id="polygon3740"
   style="opacity:0.03999999;stroke:#ffffff;stroke-miterlimit:10" />
<polygon
   opacity="0.04"
   stroke="#FFFFFF"
   stroke-miterlimit="10"
   enable-background="new    "
   points="0,150 86.6,200 86.6,100 "
   id="polygon3742" />
<polygon
   opacity="0.08"
   stroke="#FFFFFF"
   stroke-miterlimit="10"
   enable-background="new    "
   points="86.6,100 173.2,150 173.2,50   "
   id="polygon3744" />
<polygon
   fill-opacity="0"
   points="86.6,100 0,50 0,150 "
   id="polygon3746" />
<polygon
   opacity="0.08"
   stroke="#FFFFFF"
   stroke-miterlimit="10"
   enable-background="new    "
   points="173.2,150 86.6,100 86.6,200   "
   id="polygon3748" />
<polygon
   opacity="0.08"
   stroke="#FFFFFF"
   stroke-miterlimit="10"
   enable-background="new    "
   points="173.2,50 86.6,0 86.6,100 "
   id="polygon3750" />
</svg>